<?xml version="1.0" encoding="utf-8"?>
<svg version="1.1"
	 id="svg16" xmlns:cc="http://creativecommons.org/ns#" xmlns:dc="http://purl.org/dc/elements/1.1/" xmlns:inkscape="http://www.inkscape.org/namespaces/inkscape" xmlns:rdf="http://www.w3.org/1999/02/22-rdf-syntax-ns#" xmlns:sodipodi="http://sodipodi.sourceforge.net/DTD/sodipodi-0.dtd" xmlns:svg="http://www.w3.org/2000/svg"
	 xmlns="http://www.w3.org/2000/svg" xmlns:xlink="http://www.w3.org/1999/xlink" x="0px" y="0px" viewBox="0 0 92.6 101.7"
	 style="enable-background:new 0 0 92.6 101.7;" xml:space="preserve">
<style type="text/css">
	.st0{fill:#FDBA29;}
	.st1{fill:#231F20;}
</style>
<g>
	<g>
		<path class="st0" d="M51.2,3.6c-2.7-1.5-7-1.5-9.7,0L7.1,23.1c-2.7,1.5-4.9,5.3-4.9,8.3v38.8c0,3.1,2.2,6.8,4.9,8.3l34.3,19.5
			c2.7,1.5,7,1.5,9.7,0l34.3-19.5c2.7-1.5,4.9-5.3,4.9-8.3V31.4c0-3.1-2.2-6.8-4.9-8.3L51.2,3.6z"/>
	</g>
	<g>
		<path class="st1" d="M18.3,57.9h-4.2V30.4h10.7c2.6,0,4.6,0.7,6.1,2c1.5,1.3,2.2,3.2,2.2,5.5c0,1.4-0.4,2.7-1.2,3.8
			c-0.7,1-1.5,1.7-2.5,2c2.7,1.1,4.1,3.2,4.1,6.4c0,2.5-0.8,4.4-2.3,5.8c-1.5,1.3-3.5,2-6,2h-3.8l0-3.7h3.4c1.4,0,2.5-0.4,3.3-1.2
			c0.8-0.8,1.2-1.8,1.2-3c0-1.3-0.4-2.3-1.2-3c-0.8-0.8-1.9-1.2-3.3-1.2h-3.4V42h3c1.4,0,2.4-0.3,3.2-1c0.8-0.7,1.3-1.7,1.3-2.9
			c0-1.2-0.4-2.2-1.3-2.9c-0.8-0.7-1.9-1-3.2-1h-6.2V57.9z"/>
		<path class="st1" d="M40.8,57.9h-4.2V30.4h10.7c2.6,0,4.6,0.7,6.1,2c1.5,1.3,2.2,3.2,2.2,5.5c0,1.4-0.4,2.7-1.2,3.8
			c-0.7,1-1.5,1.7-2.5,2c2.7,1.1,4.1,3.2,4.1,6.4c0,2.5-0.8,4.4-2.3,5.8c-1.5,1.3-3.5,2-6,2h-3.8l0-3.7h3.4c1.4,0,2.5-0.4,3.3-1.2
			c0.8-0.8,1.2-1.8,1.2-3c0-1.3-0.4-2.3-1.2-3c-0.8-0.8-1.9-1.2-3.3-1.2h-3.4V42h3c1.4,0,2.4-0.3,3.2-1c0.8-0.7,1.3-1.7,1.3-2.9
			c0-1.2-0.4-2.2-1.3-2.9c-0.8-0.7-1.9-1-3.2-1h-6.2V57.9z"/>
		<path class="st1" d="M63.2,57.9H59V30.4h10.7c2.6,0,4.6,0.7,6.1,2c1.5,1.3,2.2,3.2,2.2,5.5c0,1.4-0.4,2.7-1.2,3.8
			c-0.7,1-1.5,1.7-2.5,2c2.7,1.1,4.1,3.2,4.1,6.4c0,2.5-0.8,4.4-2.3,5.8c-1.5,1.3-3.5,2-6,2h-3.8l0-3.7h3.4c1.4,0,2.5-0.4,3.3-1.2
			c0.8-0.8,1.2-1.8,1.2-3c0-1.3-0.4-2.3-1.2-3c-0.8-0.8-1.9-1.2-3.3-1.2h-3.4V42h3c1.4,0,2.4-0.3,3.2-1c0.8-0.7,1.3-1.7,1.3-2.9
			c0-1.2-0.4-2.2-1.3-2.9c-0.8-0.7-1.9-1-3.2-1h-6.2V57.9z"/>
	</g>
	<g>
		<path class="st1" d="M28.5,73.3c0.1,0.8,0.3,1.4,0.7,1.8c0.5,0.5,1.1,0.7,1.8,0.7c1,0,1.8-0.3,2.5-1l1.3,1.2
			c-1,1.1-2.3,1.6-3.8,1.6c-1.4,0-2.5-0.4-3.2-1.2c-0.9-0.9-1.3-2.2-1.3-4.1c0-1.6,0.4-2.9,1.2-3.8c0.8-0.9,1.8-1.4,3.1-1.4
			c1.4,0,2.4,0.5,3.2,1.4c0.8,0.9,1.1,2.1,1.1,3.5V73h-5v-1.4h3c0-0.5-0.1-1-0.3-1.4c-0.4-0.9-1-1.3-2-1.3c-1,0-1.7,0.4-2,1.3
			c-0.1,0.3-0.2,0.7-0.2,1V73.3z"/>
		<path class="st1" d="M43.3,70.9c0-0.7-0.2-1.1-0.5-1.4C42.4,69.1,41.8,69,41,69c-1,0-1.7,0.3-2.2,1l-1.3-1.3
			c0.5-0.5,1-0.9,1.5-1.1c0.5-0.2,1.2-0.3,2.1-0.3c2.8,0,4.2,1.2,4.2,3.5v6.7h-2v-0.9c-0.7,0.7-1.6,1-2.7,1c-1.2,0-2.1-0.3-2.7-0.9
			c-0.5-0.5-0.8-1.3-0.8-2.2c0-0.9,0.3-1.6,0.9-2.1c0.6-0.5,1.5-0.8,2.6-0.8h1V73h-0.7c-1.2,0-1.8,0.5-1.8,1.4s0.6,1.4,1.8,1.4
			c0.9,0,1.5-0.2,1.9-0.6c0.3-0.3,0.4-0.8,0.4-1.5V70.9z"/>
		<path class="st1" d="M54.8,76.8c-0.8,0.5-1.8,0.8-3,0.8c-1.9,0-3.3-0.5-4.3-1.5l1.3-1.3c0.7,0.7,1.7,1.1,2.9,1.1
			c1.5,0,2.2-0.5,2.2-1.4c0-0.7-0.5-1.1-1.4-1.2L51,73.1c-2-0.2-3-1.1-3-2.8c0-1,0.4-1.7,1.1-2.3c0.7-0.5,1.6-0.8,2.7-0.8
			c1.6,0,2.9,0.4,3.8,1.1l-1.3,1.3c-0.6-0.5-1.4-0.7-2.5-0.7c-1.2,0-1.8,0.4-1.8,1.3c0,0.7,0.5,1.1,1.4,1.2l1.6,0.1
			c2,0.2,3,1.1,3,2.9C56,75.4,55.6,76.2,54.8,76.8z"/>
		<path class="st1" d="M61.7,79.5c-0.2,0.5-0.4,1-0.7,1.3c-0.5,0.5-1.2,0.7-2.1,0.7H58v-1.8h0.5c0.7,0,1.2-0.4,1.5-1.1l0.6-1.6
			L57,67.3h2.2l2.4,7.2l2.4-7.2h2.2L61.7,79.5z"/>
	</g>
</g>
</svg>
