<?xml version="1.0" encoding="utf-8"?>
<svg version="1.1"
	 id="svg16" xmlns:cc="http://creativecommons.org/ns#" xmlns:dc="http://purl.org/dc/elements/1.1/" xmlns:inkscape="http://www.inkscape.org/namespaces/inkscape" xmlns:rdf="http://www.w3.org/1999/02/22-rdf-syntax-ns#" xmlns:sodipodi="http://sodipodi.sourceforge.net/DTD/sodipodi-0.dtd" xmlns:svg="http://www.w3.org/2000/svg"
	 xmlns="http://www.w3.org/2000/svg" xmlns:xlink="http://www.w3.org/1999/xlink" x="0px" y="0px" viewBox="0 0 92.6 101.7"
	 style="enable-background:new 0 0 92.6 101.7;" xml:space="preserve">
<style type="text/css">
	.st0{fill:#FDBA29;}
	.st1{fill:#231F20;}
</style>
<g>
	
		<sodipodi:namedview  bordercolor="#666666" borderopacity="1.0" id="base" inkscape:current-layer="layer1" inkscape:cx="1047.4583" inkscape:cy="-752.16767" inkscape:document-units="mm" inkscape:pageopacity="0.0" inkscape:pageshadow="2" inkscape:window-height="1020" inkscape:window-maximized="1" inkscape:window-width="1920" inkscape:window-x="0" inkscape:window-y="28" inkscape:zoom="0.35" pagecolor="#ffffff" showgrid="false">
		</sodipodi:namedview>
	<g>
		<path class="st0" d="M51.2,3c-2.7-1.5-7.1-1.5-9.8,0L6.6,22.8c-2.7,1.5-4.9,5.3-4.9,8.4v39.3c0,3.1,2.2,6.9,4.9,8.4l34.8,19.7
			c2.7,1.5,7.1,1.5,9.8,0L86,79c2.7-1.5,4.9-5.3,4.9-8.4V31.2c0-3.1-2.2-6.9-4.9-8.4L51.2,3z"/>
	</g>
	<g>
		<path class="st1" d="M13.5,65.4H9.1v-29h11.3c2.7,0,4.9,0.7,6.4,2.2c1.6,1.4,2.4,3.3,2.4,5.8c0,1.5-0.4,2.8-1.2,4
			c-0.7,1-1.6,1.7-2.7,2.2c2.9,1.2,4.4,3.4,4.4,6.8c0,2.6-0.8,4.6-2.5,6.1c-1.5,1.4-3.6,2.1-6.3,2.1h-4l0-3.9h3.6
			c1.5,0,2.7-0.4,3.5-1.3c0.8-0.8,1.3-1.9,1.3-3.2c0-1.3-0.4-2.4-1.3-3.2c-0.8-0.8-2-1.2-3.5-1.2h-3.6v-4H20c1.4,0,2.6-0.4,3.4-1.1
			c0.9-0.7,1.3-1.8,1.3-3.1c0-1.3-0.4-2.3-1.3-3.1c-0.8-0.7-2-1.1-3.4-1.1h-6.5V65.4z"/>
		<path class="st1" d="M40.4,65.4h-4.4v-29h11.3c2.7,0,4.9,0.7,6.4,2.2c1.6,1.4,2.4,3.3,2.4,5.8c0,1.5-0.4,2.8-1.2,4
			c-0.7,1-1.6,1.7-2.7,2.2c2.9,1.2,4.4,3.4,4.4,6.8c0,2.6-0.8,4.6-2.5,6.1c-1.5,1.4-3.6,2.1-6.3,2.1h-4l0-3.9h3.6
			c1.5,0,2.7-0.4,3.5-1.3c0.8-0.8,1.3-1.9,1.3-3.2c0-1.3-0.4-2.4-1.3-3.2c-0.8-0.8-2-1.2-3.5-1.2h-3.6v-4H47c1.4,0,2.6-0.4,3.4-1.1
			c0.9-0.7,1.3-1.8,1.3-3.1c0-1.3-0.4-2.3-1.3-3.1c-0.8-0.7-2-1.1-3.4-1.1h-6.5V65.4z"/>
		<path class="st1" d="M67.4,65.4H63v-29h11.3c2.7,0,4.9,0.7,6.4,2.2c1.6,1.4,2.4,3.3,2.4,5.8c0,1.5-0.4,2.8-1.2,4
			c-0.7,1-1.6,1.7-2.7,2.2c2.9,1.2,4.4,3.4,4.4,6.8c0,2.6-0.8,4.6-2.5,6.1c-1.5,1.4-3.6,2.1-6.3,2.1h-4l0-3.9h3.6
			c1.5,0,2.7-0.4,3.5-1.3c0.8-0.8,1.3-1.9,1.3-3.2c0-1.3-0.4-2.4-1.3-3.2c-0.8-0.8-2-1.2-3.5-1.2h-3.6v-4h3.2c1.4,0,2.6-0.4,3.4-1.1
			c0.9-0.7,1.3-1.8,1.3-3.1c0-1.3-0.4-2.3-1.3-3.1c-0.8-0.7-2-1.1-3.4-1.1h-6.5V65.4z"/>
	</g>
</g>
</svg>
